<svg height="512" viewBox="0 0 64 64" width="512" xmlns="http://www.w3.org/2000/svg"><g id="cross-arrow-direction-button-pointer"><path d="m41.192 47.849a1 1 0 0 1 -.707-.293l-8.485-8.485-8.485 8.485a1 1 0 0 1 -1.414 0l-5.658-5.656a1 1 0 0 1 0-1.414l8.486-8.486-8.486-8.485a1 1 0 0 1 0-1.414l5.657-5.657a1 1 0 0 1 1.414 0l8.486 8.485 8.485-8.485a1 1 0 0 1 1.414 0l5.658 5.656a1 1 0 0 1 0 1.414l-8.486 8.486 8.486 8.485a1 1 0 0 1 0 1.414l-5.657 5.657a1 1 0 0 1 -.708.293zm-9.192-11.192a.993.993 0 0 1 .707.293l8.485 8.485 4.244-4.243-8.486-8.485a1 1 0 0 1 0-1.414l8.486-8.485-4.244-4.243-8.485 8.485a1 1 0 0 1 -1.414 0l-8.485-8.485-4.244 4.243 8.486 8.485a1 1 0 0 1 0 1.414l-8.486 8.485 4.244 4.243 8.485-8.485a.993.993 0 0 1 .707-.293z"/><path d="m57 62h-50a5.006 5.006 0 0 1 -5-5v-50a5.006 5.006 0 0 1 5-5h50a5.006 5.006 0 0 1 5 5v50a5.006 5.006 0 0 1 -5 5zm-50-58a3 3 0 0 0 -3 3v50a3 3 0 0 0 3 3h50a3 3 0 0 0 3-3v-50a3 3 0 0 0 -3-3z"/></g></svg>